<svg width="202" height="66" viewBox="0 0 202 66" fill="none" xmlns="http://www.w3.org/2000/svg">
  <path fill-rule="evenodd" clip-rule="evenodd" d="M4.66461 37.3169C2.08842 37.3169 1.53989e-06 35.2285 1.42728e-06 32.6523L2.03897e-07 4.66461C9.12878e-08 2.08842 2.08842 1.12609e-07 4.66461 0C7.2408 -1.12609e-07 9.32922 2.08842 9.32922 4.66461L9.32922 32.6523C9.32922 35.2285 7.2408 37.3169 4.66461 37.3169Z" fill="black"/>
  <path fill-rule="evenodd" clip-rule="evenodd" d="M37.3169 4.66461C37.3169 7.2408 35.2285 9.32922 32.6523 9.32922H4.66461C2.08842 9.32922 2.03897e-07 7.2408 2.03897e-07 4.66461C9.12878e-08 2.08842 2.08842 1.12609e-07 4.66461 0L32.6523 9.45316e-07C35.2285 9.45316e-07 37.3169 2.08842 37.3169 4.66461Z" fill="black"/>
  <path fill-rule="evenodd" clip-rule="evenodd" d="M37.3169 59.8625C37.3169 62.4387 35.2285 64.5271 32.6523 64.5271H4.66461C2.08842 64.5271 0 62.4387 0 59.8625C0 57.2863 2.08842 55.1979 4.66461 55.1979H32.6523C35.2285 55.1979 37.3169 57.2863 37.3169 59.8625Z" fill="black"/>
  <path fill-rule="evenodd" clip-rule="evenodd" d="M33.041 64.5271C32.9112 64.5271 32.7817 64.5263 32.6523 64.5248V55.1946C32.7816 55.1968 32.9112 55.1979 33.041 55.1979C45.7073 55.1979 55.9753 44.9298 55.9753 32.2635C55.9753 19.5973 45.7073 9.32922 33.041 9.32922C32.9112 9.32922 32.7816 9.3303 32.6523 9.33245V0.00229417C32.7817 0.000766556 32.9112 6.1169e-07 33.041 6.1169e-07C50.8596 6.1169e-07 65.3045 14.4449 65.3045 32.2635C65.3045 50.0822 50.8596 64.5271 33.041 64.5271Z" fill="black"/>
  <path fill-rule="evenodd" clip-rule="evenodd" d="M73.8563 38.0943C71.2801 38.0943 69.1917 36.0059 69.1917 33.4297V5.44204C69.1917 2.86585 71.2801 0.777435 73.8563 0.777435C76.4325 0.777435 78.5209 2.86585 78.5209 5.44204V33.4297C78.5209 36.0059 76.4325 38.0943 73.8563 38.0943Z" fill="black"/>
  <path fill-rule="evenodd" clip-rule="evenodd" d="M106.509 5.44204C106.509 8.01824 104.42 10.1067 101.844 10.1067H73.8563C71.2801 10.1067 69.1917 8.01824 69.1917 5.44204C69.1917 2.86585 71.2801 0.777435 73.8563 0.777435L101.844 0.777436C104.42 0.777436 106.509 2.86585 106.509 5.44204Z" fill="black"/>
  <path fill-rule="evenodd" clip-rule="evenodd" d="M106.509 60.6399C106.509 63.2161 104.42 65.3045 101.844 65.3045H73.8563C71.2801 65.3045 69.1917 63.2161 69.1917 60.6399C69.1917 58.0637 71.2801 55.9753 73.8563 55.9753H101.844C104.42 55.9753 106.509 58.0637 106.509 60.6399Z" fill="black"/>
  <path fill-rule="evenodd" clip-rule="evenodd" d="M102.233 65.3045C102.103 65.3045 101.973 65.3038 101.844 65.3022V55.9721C101.973 55.9742 102.103 55.9753 102.233 55.9753C114.899 55.9753 125.167 45.7073 125.167 33.041C125.167 20.3747 114.899 10.1067 102.233 10.1067C102.103 10.1067 101.973 10.1077 101.844 10.1099V0.779729C101.973 0.778201 102.103 0.777435 102.233 0.777435C120.051 0.777435 134.496 15.2223 134.496 33.041C134.496 50.8596 120.051 65.3045 102.233 65.3045Z" fill="black"/>
  <path fill-rule="evenodd" clip-rule="evenodd" d="M142.138 65.3045C139.561 65.3045 137.473 63.2161 137.473 60.6399V4.66461C137.473 2.08842 139.561 7.02977e-07 142.138 8.15586e-07C144.714 9.28195e-07 146.802 2.08842 146.802 4.66461V60.6399C146.802 63.2161 144.714 65.3045 142.138 65.3045Z" fill="black"/>
  <path fill-rule="evenodd" clip-rule="evenodd" d="M197.335 65.3045C194.759 65.3045 192.671 63.2161 192.671 60.6399V4.66461C192.671 2.08842 194.759 7.02977e-07 197.335 8.15586e-07C199.912 9.28195e-07 202 2.08842 202 4.66461V60.6399C202 63.2161 199.912 65.3045 197.335 65.3045Z" fill="black"/>
  <path fill-rule="evenodd" clip-rule="evenodd" d="M153.932 33.4297C153.932 30.8535 156.021 28.7651 158.597 28.7651L184.252 28.7651C186.828 28.7651 188.917 30.8535 188.917 33.4297C188.917 36.0059 186.828 38.0943 184.252 38.0943L158.597 38.0943C156.021 38.0943 153.932 36.0059 153.932 33.4297Z" fill="black"/>
  <path fill-rule="evenodd" clip-rule="evenodd" d="M159.374 28.7787C159.116 28.7697 158.857 28.7651 158.597 28.7651C151.19 28.7651 144.648 32.464 140.716 38.1152V51.3107H146.182C146.166 51.0536 146.158 50.7944 146.158 50.5333C146.158 43.6634 151.727 38.0943 158.597 38.0943C158.858 38.0943 159.117 38.1023 159.374 38.1182V28.7787Z" fill="black"/>
</svg>
  