<svg width="80" height="80" viewBox="0 0 80 80" fill="none" xmlns="http://www.w3.org/2000/svg">
  <path d="M75.0274 38.0137C75.0274 56.8065 59.7928 72.0411 41 72.0411C34.2862 72.0411 28.0266 70.0967 22.7534 66.7403C20.8878 65.5528 12.0197 71.5859 10.4247 70.0685C8.7014 68.4291 14.2757 59.2137 12.9255 57.2466C9.17013 51.7753 6.97262 45.1511 6.97262 38.0137C6.97262 19.2209 22.2072 3.9863 41 3.9863C59.7928 3.9863 75.0274 19.2209 75.0274 38.0137Z" fill="white"/>
  <path d="M5 75L10.061 56.511C6.938 51.099 5.297 44.964 5.3 38.673C5.309 19.005 21.314 3 40.9789 3C50.5219 3.003 59.4799 6.72 66.2179 13.464C72.9528 20.208 76.6608 29.172 76.6578 38.706C76.6488 58.377 60.6439 74.382 40.9789 74.382C35.0089 74.379 29.1259 72.882 23.915 70.038L5 75ZM24.791 63.579C29.8189 66.564 34.6189 68.352 40.9669 68.355C57.3109 68.355 70.6249 55.053 70.6339 38.7C70.6399 22.314 57.3889 9.03 40.9909 9.024C24.635 9.024 11.33 22.326 11.324 38.676C11.321 45.351 13.277 50.349 16.562 55.578L13.565 66.522L24.791 63.579ZM58.9519 47.187C58.7299 46.815 58.1359 46.593 57.2419 46.146C56.3509 45.699 51.9679 43.542 51.1489 43.245C50.3329 42.948 49.7389 42.798 49.1419 43.692C48.5479 44.583 46.8379 46.593 46.3189 47.187C45.7999 47.781 45.2779 47.856 44.3869 47.409C43.4959 46.962 40.6219 46.023 37.2169 42.984C34.5679 40.62 32.7769 37.701 32.2579 36.807C31.7389 35.916 32.2039 35.433 32.6479 34.989C33.0499 34.59 33.5389 33.948 33.9859 33.426C34.4389 32.91 34.5859 32.538 34.8859 31.941C35.1829 31.347 35.0359 30.825 34.8109 30.378C34.5859 29.934 32.8039 25.545 32.0629 23.76C31.3369 22.023 30.6019 22.257 30.0559 22.23L28.3459 22.2C27.752 22.2 26.786 22.422 25.97 23.316C25.154 24.21 22.85 26.364 22.85 30.753C22.85 35.142 26.045 39.381 26.489 39.975C26.9359 40.569 32.7739 49.575 41.7169 53.436C43.8439 54.354 45.5059 54.903 46.7989 55.314C48.9349 55.992 50.8789 55.896 52.4149 55.668C54.1279 55.413 57.6889 53.511 58.4329 51.429C59.1769 49.344 59.1769 47.559 58.9519 47.187Z" fill="#25D366"/>
  <path d="M3.55322 74.604L2.86718 77.1103L5.38062 76.4509L23.7263 71.6383C29.026 74.419 34.9604 75.879 40.9782 75.882H40.9789C61.4726 75.882 78.1485 59.2053 78.1578 38.7067V38.7065C78.161 28.7749 74.2952 19.4294 67.2792 12.404L67.279 12.4038C60.2598 5.37837 50.9203 1.50313 40.9794 1.5H40.9789C20.4853 1.5 3.80938 18.1766 3.8 38.6723C3.79698 45.0139 5.39788 51.2061 8.45097 56.7113L3.55322 74.604Z" stroke="white" stroke-width="3"/>
</svg>
  